<svg width="626" height="352" xmlns="http://www.w3.org/2000/svg"><g fill="none" fill-rule="evenodd"><path fill="none" d="M0 352h626V0H0z"/><path d="M421.798 61.6l-27.19 15.697a12.004 12.004 0 0 1-12.098-.057l-37.274-21.995a11.995 11.995 0 0 0-12.098-.058l-44.476 25.678-76.55-44.805a11.998 11.998 0 0 0-12.061-.036l-51.924 29.978c-4 2.31-4 8.083 0 10.393l124.024 71.603-124.02 71.603c-4 2.31-4 8.082-.001 10.392l15.254 8.81c4 2.31 3.999 8.083-.001 10.392L105.87 282.4M189.01 292l209.732-121.09a12.003 12.003 0 0 1 11.865-.076l22.875 12.814a11.997 11.997 0 0 0 11.904-.1l92.806-54.05" stroke="#E5E6E8" stroke-width="2"/><path d="M504.937 186.4l-24.255 14.004c-4 2.31-4 8.083 0 10.392l15.17 8.758c4.019 2.321 3.996 8.13-.041 10.417l-7.659 4.34-10.443 6.143a12.002 12.002 0 0 1-12.086.05l-37.745-21.793a11.998 11.998 0 0 0-11.994-.003l-137.738 79.433a11.998 11.998 0 0 1-11.995-.003l-54.514-31.473a11.998 11.998 0 0 0-12 0l-60.51 34.935" stroke="#FF6F00" stroke-width="2"/><path d="M122.415 215.249L81.5 191.547c-3.973-2.302-3.994-8.03-.04-10.361l41.039-24.193" stroke="#E5E6E8" stroke-width="2"/><path d="M239.224 186.59l-44.295 25.239a12.002 12.002 0 0 1-11.975-.053L131.77 182c-4.02-2.338-3.966-8.162.096-10.427l24.466-13.64" stroke="#425066" stroke-width="2"/><path d="M126.499 156.993a4 4 0 1 0-8 0 4 4 0 0 0 8 0" fill="#E5E6E8"/><path d="M126.499 156.993a4 4 0 1 0-8 0 4 4 0 0 0 8 0z" stroke="#E5E6E8" stroke-width="2"/><path d="M126.415 215.249a4 4 0 1 0-8 0 4 4 0 0 0 8 0" fill="#FFF"/><path d="M126.415 215.249a4 4 0 1 0-8 0 4 4 0 0 0 8 0z" stroke="#E5E6E8" stroke-width="2"/><path d="M160.332 157.933a4 4 0 1 0-8 0 4 4 0 0 0 8 0" fill="#FFF"/><path d="M160.332 157.933a4 4 0 1 0-8 0 4 4 0 0 0 8 0z" stroke="#425066" stroke-width="2"/><path d="M243.224 186.59a4 4 0 1 0-8 .001 4 4 0 0 0 8 0" fill="#425066"/><path d="M243.224 186.59a4 4 0 1 0-8 .001 4 4 0 0 0 8 0z" stroke="#425066" stroke-width="2"/><path d="M143.126 301.6a4 4 0 1 0-8 0 4 4 0 0 0 8 0" fill="#FFF"/><path d="M143.126 301.6a4 4 0 1 0-8 0 4 4 0 0 0 8 0z" stroke="#FF6F00" stroke-width="2"/><path d="M109.87 282.4a4 4 0 1 0-8 0 4 4 0 0 0 8 0" fill="#E5E6E8"/><path d="M109.87 282.4a4 4 0 1 0-8 0 4 4 0 0 0 8 0z" stroke="#E5E6E8" stroke-width="2"/><path d="M542.192 129.499a4 4 0 1 0-8 0 4 4 0 0 0 8 0" fill="#E5E6E8"/><path d="M542.192 129.499a4 4 0 1 0-8 0 4 4 0 0 0 8 0z" stroke="#E5E6E8" stroke-width="2"/><path d="M508.937 186.4a4 4 0 1 0-8 0 4 4 0 0 0 8 0" fill="#FFF"/><path d="M508.937 186.4a4 4 0 1 0-8 0 4 4 0 0 0 8 0z" stroke="#FF6F00" stroke-width="2"/><path d="M193.01 292a4 4 0 1 0-8 0 4 4 0 0 0 8 0" fill="#E5E6E8"/><path d="M193.01 292a4 4 0 1 0-8 0 4 4 0 0 0 8 0zM355.896 61.248l-44.53-25.09a12 12 0 0 0-11.89.064L256.13 61.248l-16.905-9.44" stroke="#E5E6E8" stroke-width="2"/><path d="M438.157 109.444l-26.987-15.58a11.998 11.998 0 0 0-12 0L355.287 119.2" stroke="#425066" stroke-width="2"/><path d="M425.798 61.6a4 4 0 1 0-8 0 4 4 0 0 0 8 0" fill="#FFF"/><path d="M425.798 61.6a4 4 0 1 0-8 0 4 4 0 0 0 8 0z" stroke="#E5E6E8" stroke-width="2"/><path d="M442.157 109.444a4 4 0 1 0-8 0 4 4 0 0 0 8 0" fill="#425066"/><path d="M442.157 109.444a4 4 0 1 0-8 0 4 4 0 0 0 8 0z" stroke="#425066" stroke-width="2"/><path d="M471.99 128.978l24.825 14.332c3.999 2.31 4 8.08.002 10.391l-24.244 14.013" stroke="#E5E6E8" stroke-width="2"/><path d="M475.99 128.978a4 4 0 1 0-8 0 4 4 0 0 0 8 0" fill="#FFF"/><path d="M475.99 128.978a4 4 0 1 0-8 0 4 4 0 0 0 8 0z" stroke="#E5E6E8" stroke-width="2"/><g fill="#425066" fill-opacity=".05"><path d="M336.381 259.013l63.384 36.596-47.538 27.445-63.383-36.595zM262.434 216.32l63.384 36.596-47.538 27.445-63.384-36.596z"/></g><path fill="#CED0D1" d="M220.179 57.727v170.77l63.383 36.593 1.22-.704V93.618l-63.383-36.595z"/><path fill="#3A485F" d="M283.562 94.322l-5.282 3.05v12.197l5.282-3.05v152.474l-5.282 3.05v6.096l5.282-3.048 42.256-24.397V69.926z"/><path fill="#CED0D1" d="M294.126 100.42v170.77l63.384 36.594 1.22-.706V136.312l-63.384-36.594z"/><path fill="#FFF" d="M294.126 265.092l-5.282 3.049 63.384 36.596 5.282-3.05z"/><path fill="#CED0D1" d="M288.844 268.14v6.098l63.383 36.594v-6.096z"/><path fill="#E5E6E8" d="M225.46 79.074v12.197l52.82 30.496v-12.198z"/><path fill="#CED0D1" d="M272.998 94.322l5.282 3.05v12.197l-5.282-3.05z"/><path fill="#E5E6E8" d="M225.46 103.47v12.197l52.82 30.495v-12.198zM225.46 127.865v12.197l52.82 30.496V158.36zM225.46 152.26v12.198l52.82 30.495v-12.197zM225.46 176.656v12.197l52.82 30.496v-12.198zM225.46 201.052v12.197l52.82 30.495v-12.197z"/><path fill="#CED0D1" d="M214.897 60.777v10.368l5.282 3.05V63.826z"/><path fill="#B8BABA" d="M225.46 60.777v10.368l-5.282 3.05V63.826z"/><path fill="#FFF" d="M220.179 222.398l-5.282 3.05 63.384 36.595 5.28-3.05z"/><path fill="#CED0D1" d="M214.897 225.447v6.097l63.384 36.595v-6.096z"/><path fill="#E5E6E8" d="M299.408 121.767v12.197l52.82 30.496v-12.198z"/><path fill="#CED0D1" d="M346.945 137.015l5.282 3.05v12.197l-5.282-3.049z"/><path fill="#E5E6E8" d="M299.408 146.163v12.197l52.82 30.496v-12.198zM299.408 170.558v12.197l52.82 30.496v-12.198zM299.408 194.954v12.197l52.82 30.496v-12.198zM299.408 219.35v12.196l52.82 30.496v-12.198zM299.408 243.745v12.197l52.82 30.496V274.24z"/><path fill="#CED0D1" d="M288.844 103.47v10.368l5.282 3.05V106.52z"/><path fill="#B8BABA" d="M299.408 103.47v10.368l-5.282 3.05V106.52z"/><path fill="#FFF" d="M336.381 76.025l-42.255 24.396-5.282 3.05 5.282 3.05 5.281-3.05 52.82 30.494-5.282 3.05 5.282 3.05 5.282-3.05 42.256-24.396zM283.562 94.322l42.255-24.396-63.383-36.595-42.255 24.396-5.283 3.05 5.283 3.05 5.281-3.05 52.82 30.495-5.281 3.05 5.281 3.05z"/><path fill="#3A485F" d="M357.51 137.015l-5.282 3.05v12.197l5.282-3.049v152.474l-5.282 3.05v6.095l5.282-3.048 42.255-24.397V112.62z"/><g><path d="M277.06 115.573v8.866c0 1.307.697 2.515 1.83 3.169l13.934 8.045a3.664 3.664 0 0 0 3.66 0l5.565-3.213M277.06 139.969v8.866c0 1.306.697 2.514 1.83 3.168l13.934 8.046a3.664 3.664 0 0 0 3.66 0l5.716-3.302M277.06 164.364v8.866c0 1.307.697 2.515 1.83 3.169l13.934 8.045a3.664 3.664 0 0 0 3.66 0l5.716-3.301M277.06 188.76v8.866c0 1.307.697 2.515 1.83 3.169l13.934 8.045a3.661 3.661 0 0 0 3.66 0l5.565-3.213M277.06 213.155v8.866c0 1.307.697 2.515 1.83 3.17l13.934 8.044a3.659 3.659 0 0 0 3.66 0l5.565-3.213M277.06 237.55v8.867c0 1.307.697 2.516 1.83 3.169l13.934 8.045a3.659 3.659 0 0 0 3.66 0l5.565-3.213" stroke="#E5E6E8" stroke-width="2" stroke-linecap="round" stroke-linejoin="round"/><path d="M387.088 134.257c-1.167.674-2.113 2.312-2.113 3.659v6.089c0 1.348.946 1.894 2.113 1.22 1.167-.674 2.113-2.313 2.113-3.66v-6.088c0-1.348-.946-1.894-2.113-1.22M378.637 139.136c-1.167.674-2.113 2.313-2.113 3.659v6.089c0 1.348.946 1.894 2.113 1.22 1.167-.675 2.113-2.313 2.113-3.66v-6.088c0-1.347-.946-1.894-2.113-1.22M370.186 144.015c-1.167.673-2.113 2.312-2.113 3.66v6.088c0 1.347.946 1.894 2.113 1.22 1.167-.674 2.113-2.313 2.113-3.659v-6.089c0-1.348-.946-1.894-2.113-1.22" fill="#CED0D1"/><path d="M265.447 158.999c0-5.523 4.477-10 10-10s10 4.477 10 10c0 5.522-4.477 10-10 10s-10-4.478-10-10" fill="#FF6F00"/><path d="M273.358 112.757a47.301 47.301 0 0 0-5.37-2.677" stroke="#FF6F00" stroke-width="2"/><path d="M260.657 107.868c-12.525-2.248-22.162 4.337-25.234 17.636" stroke="#FF6F00" stroke-width="2" stroke-dasharray="11.498,7.665"/><path d="M234.753 129.267a47.137 47.137 0 0 0-.367 5.99M312.33 180.257c0-1.967-.11-3.966-.322-5.988" stroke="#FF6F00" stroke-width="2"/><path d="M310.669 166.264c-4.062-17.872-15.195-36.283-29.074-47.745" stroke="#FF6F00" stroke-width="2" stroke-dasharray="12.178,8.118"/><path d="M278.383 116.03a57.83 57.83 0 0 0-5.025-3.273M273.358 202.757a47.219 47.219 0 0 0 5.37 2.677" stroke="#FF6F00" stroke-width="2"/><path d="M286.059 207.645c12.525 2.248 22.162-4.337 25.234-17.636" stroke="#FF6F00" stroke-width="2" stroke-dasharray="11.498,7.665"/><path d="M311.962 186.246c.242-1.888.367-3.886.367-5.99M234.387 135.257c0 1.966.109 3.966.32 5.988" stroke="#FF6F00" stroke-width="2"/><path d="M236.046 149.249c4.062 17.872 15.195 36.283 29.074 47.745" stroke="#FF6F00" stroke-width="2" stroke-dasharray="12.178,8.118"/><path d="M268.332 199.484a57.694 57.694 0 0 0 5.026 3.272" stroke="#FF6F00" stroke-width="2"/></g></g></svg>